<svg width="572" height="442" viewBox="0 0 572 442" fill="none" xmlns="http://www.w3.org/2000/svg">
<path d="M355.943 297.887C324.353 324.985 287.47 345.213 247.639 357.285C207.808 369.357 165.901 373.009 124.582 368.01" stroke="white" stroke-width="0.5"/>
<path d="M219.102 264.617C204.894 264.617 195.678 254.249 195.678 241.705C195.678 232.233 200.414 225.449 205.278 221.097C215.39 212.137 217.822 211.625 227.678 211.625H236.766V207.657H196.574V194.729H263.262V262.953H247.006V244.137H243.678C242.014 257.577 232.03 264.617 219.102 264.617ZM227.038 252.073C238.942 252.073 247.006 241.961 247.006 222.889V207.401L223.582 223.529C215.774 228.905 212.958 233.385 212.958 239.273C212.958 247.209 218.718 252.073 227.038 252.073ZM312.304 264.873C289.392 264.873 274.672 251.049 274.672 228.905C274.672 207.017 289.392 192.553 312.304 192.553C336.496 192.553 350.832 208.169 348.912 233.513L302.832 233.385C296.688 233.385 294.128 231.465 293.744 225.705H290.16L290.032 228.649C290.032 243.881 298.48 253.097 312.176 253.097C323.184 253.097 330.864 246.697 333.552 236.585L345.456 247.081C339.312 258.473 327.536 264.873 312.304 264.873ZM295.408 183.593C289.008 183.593 284.144 178.729 284.144 172.073C284.144 165.801 289.008 160.937 295.408 160.937C301.936 160.937 306.928 165.801 306.928 172.073C306.928 178.729 301.936 183.593 295.408 183.593ZM328.048 183.593C321.648 183.593 316.784 178.729 316.784 172.073C316.784 165.801 321.648 160.937 328.048 160.937C334.576 160.937 339.568 165.801 339.568 172.073C339.568 178.729 334.576 183.593 328.048 183.593ZM290.8 221.609H333.424C332.144 210.857 323.696 204.713 312.304 204.713C300.784 204.713 292.976 210.857 290.8 221.609Z" fill="white"/>
<path d="M531.744 158.401C542.441 201.888 524.674 248.082 487.156 287.63C449.643 327.173 392.428 360.015 324.397 376.749C256.366 393.484 190.445 390.931 138.869 373.303C87.2857 355.672 50.1171 322.991 39.4201 279.505C28.7231 236.018 46.4899 189.824 84.0078 150.276C121.521 110.733 178.736 77.8912 246.767 61.1567C314.798 44.4223 380.719 46.9743 432.296 64.603C483.879 82.2338 521.047 114.915 531.744 158.401Z" stroke="white"/>
<path d="M313.956 50.9524C354.464 60.5124 392.539 78.3964 425.76 103.467C458.982 128.538 486.624 160.248 506.927 196.579" stroke="white" stroke-width="0.5"/>
<path d="M85.6453 244.592C97.873 204.809 118.245 168.005 145.466 136.521C172.687 105.037 206.161 79.561 243.76 61.7136" stroke="white" stroke-width="0.5"/>
</svg>
